# xmcd CD database file generated by OrangeCD 6.4
#
# Track frame offsets:
#	150
#	21503
#	43134
#	58626
#	80395
#	94956
#	115881
#	137031
#	157581
#	180381
#	201756
#	226056
#	243531
#	267156
#	287906
#	307631
#	329756
#
# Disc length: 4691 seconds
#
# Revision: 1
# Processed by: cddbd v1.5.2PL0 Copyright (c) Steve Scherf et al.
# Submitted via: OrangeCD 6.4
#
DISCID=e6125111
DTITLE=Laszlo Sarkozy Band - Streets Of Life
DYEAR=2011
DGENRE=
TTITLE0=Take Me Away
TTITLE1=I Believe
TTITLE2=This One's For
TTITLE3=This Time
TTITLE4=Shake
TTITLE5=My Life's Story
TTITLE6=No One Here
TTITLE7=Losing Me
TTITLE8=Streets Of Life
TTITLE9=Remember Me
TTITLE10=Arianna
TTITLE11=Living Loud
TTITLE12=Ghost Of My Heart
TTITLE13=I Remember
TTITLE14=In These Eyes
TTITLE15=Red Light Motel
TTITLE16=Time Stands Still
EXTD=
EXTT0=
EXTT1=
EXTT2=
EXTT3=
EXTT4=
EXTT5=
EXTT6=
EXTT7=
EXTT8=
EXTT9=
EXTT10=
EXTT11=
EXTT12=
EXTT13=
EXTT14=
EXTT15=
EXTT16=
PLAYORDER=
